# xmcd CD database file
#
# Track frame offsets:
#	150
#	14550
#	30029
#	44629
#	56256
#	71853
#	88286
#	99405
#	116023
#	130275
#	144644
#	158381
#	170050
#	185297
#
# Disc length: 2685 seconds
#
# Revision: 0
# Processed by: cddbd v1.5PL3 Copyright (c) Steve Scherf et al.
# Submitted via: CDex 1.51
#
DISCID=bd0a7b0e
DTITLE=Zé Carreiro e Carreirinhjo - Os Grandes Sucessos
DYEAR=1978
DGENRE=Country
TTITLE0=Zé Carreiro e Carreirinho - Canoeiro
TTITLE1=Zé Carreiro e Carreirinho - A Morte do Carreiro
TTITLE2=Zé Carreiro e Carreirinho - Boi Soberano
TTITLE3=Zé Carreiro e Carreirinho - Pirangueiro
TTITLE4=Zé Carreiro e Carreirinho - Preto Fugido
TTITLE5=Zé Carreiro e Carreirinho - Cruel Destino
TTITLE6=Zé Carreiro e Carreirinho - Bombardeio
TTITLE7=Zé Carreiro e Carreirinho - Ferreirinha
TTITLE8=Zé Carreiro e Carreirinho - Saudades de Araraquara
TTITLE9=Zé Carreiro e Carreirinho - Duas Cartas
TTITLE10=Zé Carreiro e Carreirinho - Flor Proibida
TTITLE11=Zé Carreiro e Carreirinho - Sucuri
TTITLE12=Zé Carreiro e Carreirinho - Último Adeus
TTITLE13=Zé Carreiro e Carreirinho - As Três Cuiabanas
EXTD=YEAR: 1978
EXTT0=
EXTT1=
EXTT2=
EXTT3=
EXTT4=
EXTT5=
EXTT6=
EXTT7=
EXTT8=
EXTT9=
EXTT10=
EXTT11=
EXTT12=
EXTT13=
PLAYORDER=
